<svg id="圖層_3" data-name="圖層 3" xmlns="http://www.w3.org/2000/svg" xmlns:xlink="http://www.w3.org/1999/xlink" viewBox="0 0 66.38 44.72"><defs><style>.cls-1,.cls-3,.cls-4,.cls-5{fill:none;}.cls-2{fill:#d7348c;}.cls-3{stroke-miterlimit:10;}.cls-3,.cls-4{stroke:url(#新增圖樣色票_6);}.cls-4,.cls-5{stroke-linecap:round;stroke-linejoin:round;}.cls-5{stroke:url(#新增圖樣色票_6-27);}</style><pattern id="新增圖樣色票_6" data-name="新增圖樣色票 6" width="64.6" height="64.6" patternTransform="translate(-33.16 109.16) scale(0.99)" patternUnits="userSpaceOnUse" viewBox="0 0 64.6 64.6"><rect class="cls-1" width="64.6" height="64.6"/><rect class="cls-2" width="64.6" height="64.6"/></pattern><pattern id="新增圖樣色票_6-27" data-name="新增圖樣色票 6" width="64.6" height="64.6" patternTransform="translate(-2196.53 -1664.53) scale(0.99)" patternUnits="userSpaceOnUse" viewBox="0 0 64.6 64.6"><rect class="cls-1" width="64.6" height="64.6"/><rect class="cls-2" width="64.6" height="64.6"/></pattern></defs><title>exp</title><ellipse class="cls-3" cx="2196.83" cy="1783.74" rx="15.63" ry="9.44" transform="translate(-2353.2 -1510.36) rotate(-6.58)"/><ellipse class="cls-3" cx="2196.76" cy="1783.13" rx="14.62" ry="8.83" transform="translate(-2353.13 -1510.37) rotate(-6.58)"/><ellipse class="cls-3" cx="2196.69" cy="1782.53" rx="13.62" ry="8.22" transform="translate(-2353.06 -1510.38) rotate(-6.58)"/><ellipse class="cls-3" cx="2196.62" cy="1781.93" rx="12.61" ry="7.62" transform="translate(-2352.99 -1510.39) rotate(-6.58)"/><ellipse class="cls-3" cx="2196.55" cy="1781.32" rx="11.6" ry="7.01" transform="translate(-2352.92 -1510.4) rotate(-6.58)"/><ellipse class="cls-3" cx="2196.48" cy="1780.72" rx="10.6" ry="6.4" transform="translate(-2352.85 -1510.42) rotate(-6.58)"/><ellipse class="cls-3" cx="2196.41" cy="1780.12" rx="9.59" ry="5.79" transform="translate(-2352.79 -1510.43) rotate(-6.58)"/><ellipse class="cls-3" cx="2196.34" cy="1779.51" rx="8.59" ry="5.19" transform="translate(-2352.72 -1510.44) rotate(-6.58)"/><ellipse class="cls-3" cx="2196.27" cy="1778.91" rx="7.58" ry="4.58" transform="translate(-2352.65 -1510.45) rotate(-6.58)"/><ellipse class="cls-3" cx="2196.2" cy="1778.3" rx="6.57" ry="3.97" transform="translate(-2352.58 -1510.46) rotate(-6.58)"/><path class="cls-4" d="M2183.47,1778.46s-7.88,9.08-1.16,24a25.78,25.78,0,0,1,1.79,15.49s1.91-11.71,8.44-14,18.67-9.81,20.89-20.4a20.52,20.52,0,0,0,.26-5.57" transform="translate(-2163.37 -1773.69)"/><path class="cls-4" d="M2174.89,1781.7s-5.77,7.83.1,20.42c3,6.32,2.77,10.58,2.46,12.92" transform="translate(-2163.37 -1773.69)"/><path class="cls-4" d="M2220,1778.17s2.27,12.55-5.67,20.56-15.14,11.89-16.45,15.49" transform="translate(-2163.37 -1773.69)"/><line class="cls-5" x1="12.01" y1="29.32" x2="5.55" y2="36.99"/><line class="cls-5" x1="9.29" y1="12.57" x2="0.5" y2="17.4"/><path class="cls-4" d="M2173.43,1796.75" transform="translate(-2163.37 -1773.69)"/><line class="cls-5" x1="1.76" y1="30.7" x2="9.54" y2="23.4"/><line class="cls-5" x1="48.45" y1="27.42" x2="56.73" y2="31.09"/><line class="cls-5" x1="54.93" y1="20.46" x2="65.44" y2="23.65"/><line class="cls-5" x1="56.58" y1="12.49" x2="65.88" y2="14.45"/></svg>