<svg xmlns="http://www.w3.org/2000/svg" xmlns:xlink="http://www.w3.org/1999/xlink" viewBox="0 0 66.37865 44.7162"><defs><style>.cls-1,.cls-3,.cls-4{fill:none;}.cls-2{fill:#d7348c;}.cls-3{stroke-miterlimit:10;}.cls-3,.cls-4{stroke:url(#新增圖樣色票_6);}.cls-4{stroke-linecap:round;stroke-linejoin:round;}</style><pattern id="新增圖樣色票_6" data-name="新增圖樣色票 6" width="64.60372" height="64.60372" patternTransform="translate(-33.16316 109.1644) scale(0.99278)" patternUnits="userSpaceOnUse" viewBox="0 0 64.604 64.604"><rect class="cls-1" width="64.60372" height="64.60372"/><rect class="cls-2" width="64.60372" height="64.60372"/></pattern></defs><title>eye</title><g id="圖層_2" data-name="圖層 2"><g id="圖層_3" data-name="圖層 3"><ellipse class="cls-3" cx="33.45946" cy="10.04728" rx="15.62718" ry="9.43835" transform="translate(-0.93053 3.89812) rotate(-6.57635)"/><ellipse class="cls-3" cx="33.38988" cy="9.44373" rx="14.62125" ry="8.8308" transform="translate(-0.86186 3.88618) rotate(-6.57635)"/><ellipse class="cls-3" cx="33.3203" cy="8.84018" rx="13.61532" ry="8.22325" transform="translate(-0.7932 3.87424) rotate(-6.57635)"/><ellipse class="cls-3" cx="33.25072" cy="8.23663" rx="12.6094" ry="7.6157" transform="translate(-0.72453 3.8623) rotate(-6.57635)"/><ellipse class="cls-3" cx="33.18114" cy="7.63307" rx="11.60347" ry="7.00815" transform="translate(-0.65587 3.85036) rotate(-6.57635)"/><ellipse class="cls-3" cx="33.11156" cy="7.02952" rx="10.59754" ry="6.4006" transform="translate(-0.5872 3.83842) rotate(-6.57635)"/><ellipse class="cls-3" cx="33.04198" cy="6.42597" rx="9.59162" ry="5.79305" transform="translate(-0.51854 3.82648) rotate(-6.57635)"/><ellipse class="cls-3" cx="32.9724" cy="5.82242" rx="8.58569" ry="5.1855" transform="translate(-0.44987 3.81454) rotate(-6.57635)"/><ellipse class="cls-3" cx="32.90281" cy="5.21886" rx="7.57976" ry="4.57795" transform="translate(-0.3812 3.8026) rotate(-6.57635)"/><ellipse class="cls-3" cx="32.83323" cy="4.61531" rx="6.57384" ry="3.9704" transform="translate(-0.31254 3.79066) rotate(-6.57635)"/><path class="cls-4" d="M20.10522,4.77459S12.226,13.84658,18.94666,28.73A25.7488,25.7488,0,0,1,20.732,44.2162s1.90925-11.70207,8.43694-13.98555,18.6732-9.8074,20.8969-20.39753a20.57749,20.57749,0,0,0,.26134-5.57294"/><path class="cls-4" d="M11.5203,8.00657s-5.76273,7.82961.10662,20.4191c2.94871,6.32483,2.76444,10.58917,2.45915,12.92076"/><path class="cls-4" d="M56.58368,4.48373s2.27121,12.55-5.66547,20.553S35.77565,36.93227,34.46785,40.52763"/><line class="cls-4" x1="12.00901" y1="29.31732" x2="5.54629" y2="36.98858"/><line class="cls-4" x1="9.29128" y1="12.56543" x2="0.5" y2="17.39538"/><line class="cls-4" x1="1.7599" y1="30.70396" x2="9.53973" y2="23.39995"/><line class="cls-4" x1="48.44837" y1="27.42146" x2="56.7263" y2="31.08826"/><line class="cls-4" x1="54.93479" y1="20.46295" x2="65.44408" y2="23.64537"/><line class="cls-4" x1="56.57532" y1="12.48558" x2="65.87865" y2="14.4547"/></g></g></svg>