<?xml version="1.0" encoding="UTF-8"?>
<svg enable-background="new 0 0 512 512" version="1.1" viewBox="0 0 512 512" xml:space="preserve" xmlns="http://www.w3.org/2000/svg">
		<path d="m462.86 95.24h-192.58l-28.831-88.043c-1.406-4.293-5.413-7.197-9.931-7.197h-182.39c-27.094 0-49.137 22.043-49.137 49.138v318.48c0 27.095 22.043 49.138 49.137 49.138h192.12l29.311 88.095c1.42 4.269 5.415 7.15 9.914 7.15h182.38c27.096 1e-3 49.139-22.042 49.139-49.137v-318.48c0-27.095-22.043-49.14-49.137-49.14zm-413.73 300.62c-15.571 0-28.239-12.669-28.239-28.241v-318.48c0-15.571 12.668-28.24 28.239-28.24h174.81l122.78 374.96h-297.6zm301.32-109.32c4.473 6.841 9.853 14.435 16.206 22.461-5.947 6.704-12.52 13.493-19.759 20.226l-28.768-87.852h8.273c3.62 8.945 11.118 25.395 24.048 45.165zm-1.266-45.165h62.165c-5.469 11.908-15.308 30.468-31.079 51.099-4.545-5.928-8.505-11.556-11.901-16.717-9.028-13.722-15.237-25.776-19.185-34.382zm-85.914 175.38h75.328l-54.084 63.85-21.244-63.85zm199.58 74.347h-159.84l65.929-77.834c1.657-1.849 2.673-4.284 2.673-6.961 0-1.378-0.266-2.695-0.751-3.9l-16.85-51.458c9.785-8.559 18.525-17.252 26.302-25.839 17.544 19.367 40.485 39.927 69.799 57.876 1.703 1.043 3.586 1.539 5.446 1.539 3.516 0 6.951-1.775 8.921-4.994 3.013-4.921 1.466-11.354-3.456-14.367-28.471-17.434-50.493-37.492-67.082-56.152 23.199-29.342 35.285-55.429 40.202-67.64h30.828c5.77 0 10.449-4.678 10.449-10.449s-4.679-10.449-10.449-10.449h-74.907v-17.764c0-5.771-4.679-10.449-10.449-10.449s-10.449 4.678-10.449 10.449v17.763h-57.882l-34.165-104.34h185.73c15.571 0 28.239 12.669 28.239 28.24v318.48h1e-3c1e-3 15.572-12.667 28.241-28.238 28.241z"/>
		<path d="m213.61 199.02h-59.202c-5.771 0-10.449 4.678-10.449 10.449s4.678 10.449 10.449 10.449h47.777c-4.91 25.944-27.75 45.628-55.1 45.628-30.921 0-56.077-25.156-56.077-56.077s25.156-56.077 56.077-56.077c13.315 0 26.223 4.747 36.343 13.368 4.391 3.742 10.988 3.215 14.73-1.178 3.742-4.394 3.214-10.988-1.179-14.73-13.897-11.839-31.617-18.358-49.894-18.358-42.444 0-76.974 34.531-76.974 76.974-1e-3 42.443 34.529 76.973 76.973 76.973s76.974-34.531 76.974-76.975c1e-3 -5.767-4.677-10.446-10.448-10.446z"/>
		<path d="m201.62 351.43h-4.678c-5.77 0-10.449 4.678-10.449 10.449s4.679 10.449 10.449 10.449h4.678c5.77 0 10.449-4.678 10.449-10.449s-4.679-10.449-10.449-10.449z"/>
		<path d="m163.14 351.43h-101.49c-5.77 0-10.449 4.678-10.449 10.449s4.679 10.449 10.449 10.449h101.49c5.77 0 10.449-4.678 10.449-10.449s-4.679-10.449-10.449-10.449z"/>
</svg>
