<?xml version="1.0" encoding="UTF-8" standalone="no"?>
<!-- Created with Inkscape (http://www.inkscape.org/) -->
<svg id="svg8" viewBox="0 0 210 297">
 <g id="layer1" fill="#a0a0a0">
  <path id="path10" d="m115.11 91.373a35.53 35.908 0 0 0 -35.53 35.908 35.53 35.908 0 0 0 35.53 35.908 35.53 35.908 0 0 0 35.53 -35.908 35.53 35.908 0 0 0 -35.53 -35.908zm-11.53 24.307c2.899 0 5.1884 1.0806 6.8688 3.2417 1.6932 2.1462 2.5399 5.0696 2.5399 8.77v1.9983h-16.283c0.15393 2.8123 0.88526 4.9582 2.1937 6.4384 1.3212 1.4654 3.1556 2.1983 5.503 2.1983 1.3597 0 2.6746-0.19238 3.9445-0.57722 1.2828-0.38484 2.5525-0.96252 3.8096-1.7322v3.8633c-1.2699 0.62167-2.5716 1.0955-3.9057 1.4211-1.3341 0.32564-2.6877 0.48835-4.0602 0.48835-3.4378 0-6.1634-1.1543-8.1773-3.4634-2.0011-2.309-3.0019-5.4322-3.0019-9.3694 0-4.0704 0.94942-7.297 2.8479-9.68 1.9113-2.3978 4.4833-3.5972 7.7158-3.5972zm12.661 0.59945h4.1755l5.7144 8.8589 5.7149-8.8589h4.1749l-7.7923 12.101 8.1964 12.766h-4.1749l-6.273-9.7689-6.2725 9.7689h-4.1755l8.37-13.011zm-12.622 2.8644c-1.9754 0-3.5597 0.64394-4.7527 1.9317-1.1801 1.2877-1.8596 3.1008-2.0392 5.4395l12.622-0.0222c-0.0256-2.235-0.57088-4.0184-1.6356-5.3506-1.0518-1.3321-2.45-1.9983-4.1946-1.9983z"/>
  <path id="path4645" d="m414.89 614.91c-66.06-10.94-113.63-67.03-113.63-133.96 0-36.633 13.712-69.591 39.757-95.557 19.945-19.885 41.056-31.349 68.822-37.371 12.591-2.7311 39.32-2.4567 52.507 0.539 32.796 7.4505 59.955 24.973 79.945 51.577 33.61 44.733 35.323 109.61 4.1204 156.07-20.134 29.981-49.308 49.792-84.803 57.589-10.041 2.2056-36.339 2.8324-46.718 1.1134zm-4.2691-80.997c3.3925-0.8791 7.9002-2.4819 10.017-3.5618l3.8487-1.9634v-7.0505c0-3.8778-0.16441-7.0505-0.36535-7.0505-0.20095 0-3.2693 1.3086-6.8185 2.9081-26.787 12.071-47.658 3.059-50.984-22.016l-0.68133-5.1361h62.184l-0.59137-10.443c-0.59034-10.424-3.0515-20.178-6.5046-25.777-2.7819-4.5108-9.6872-11.326-13.444-13.269-13.206-6.8293-32.195-3.4418-42.81 7.6371-8.6523 9.03-12.757 21.273-12.847 38.316-0.062 11.819 1.6638 20.885 5.3521 28.115 2.7123 5.3165 10.368 13.386 15.619 16.463 9.1377 5.3551 24.005 6.4606 38.025 2.8277zm53.678-18.361c6.1601-9.5824 11.486-17.424 11.836-17.425 0.34978-0.001 5.7328 7.9525 11.962 17.675l11.326 17.678h7.9882c4.3935 0 7.9882-0.19536 7.9882-0.43413s-6.8351-11.102-15.189-24.14l-15.189-23.706 10.305-16.013c5.6678-8.8074 12.273-19.082 14.678-22.832l4.3725-6.8185-8.3272 0.0277-8.3271 0.0277-9.9842 15.654c-5.4914 8.6095-10.317 15.859-10.723 16.11-0.40641 0.25118-5.3999-6.8054-11.097-15.681l-10.358-16.138h-7.9609c-4.3785 0-7.9609 0.23579-7.9609 0.52399 0 0.28819 6.355 10.347 14.122 22.352 7.7672 12.005 13.81 22.338 13.428 22.962-0.38177 0.62365-6.4102 9.998-13.397 20.832-6.9863 10.834-13.76 21.422-15.052 23.529l-2.3496 3.8307 8.354-0.29515 8.354-0.29514z" transform="scale(.26458)"/>
 </g>
</svg>
