<?xml version="1.0" encoding="UTF-8" standalone="no"?>
<!-- Created with Inkscape (http://www.inkscape.org/) -->

<svg
   xmlns:dc="http://purl.org/dc/elements/1.1/"
   xmlns:cc="http://creativecommons.org/ns#"
   xmlns:rdf="http://www.w3.org/1999/02/22-rdf-syntax-ns#"
   xmlns:svg="http://www.w3.org/2000/svg"
   xmlns="http://www.w3.org/2000/svg"
   xmlns:sodipodi="http://sodipodi.sourceforge.net/DTD/sodipodi-0.dtd"
   xmlns:inkscape="http://www.inkscape.org/namespaces/inkscape"
   width="210mm"
   height="297mm"
   viewBox="0 0 210 297"
   version="1.1"
   id="svg8"
   inkscape:version="0.92.4 (5da689c313, 2019-01-14)"
   sodipodi:docname="Express.svg">
  <defs
     id="defs2" />
  <sodipodi:namedview
     id="base"
     pagecolor="#ffffff"
     bordercolor="#666666"
     borderopacity="1.0"
     inkscape:pageopacity="0.0"
     inkscape:pageshadow="2"
     inkscape:zoom="2.8"
     inkscape:cx="451.24152"
     inkscape:cy="637.57226"
     inkscape:document-units="mm"
     inkscape:current-layer="layer1"
     showgrid="false"
     inkscape:snap-object-midpoints="true"
     inkscape:window-width="1857"
     inkscape:window-height="1057"
     inkscape:window-x="55"
     inkscape:window-y="-8"
     inkscape:window-maximized="1" />
  <metadata
     id="metadata5">
    <rdf:RDF>
      <cc:Work
         rdf:about="">
        <dc:format>image/svg+xml</dc:format>
        <dc:type
           rdf:resource="http://purl.org/dc/dcmitype/StillImage" />
        <dc:title></dc:title>
      </cc:Work>
    </rdf:RDF>
  </metadata>
  <g
     inkscape:label="圖層 1"
     inkscape:groupmode="layer"
     id="layer1">
    <path
       style="fill:#a0a0a0;stroke:none"
       d="m 115.10785,91.373042 a 35.529763,35.907736 0 0 0 -35.52961,35.907888 35.529763,35.907736 0 0 0 35.52961,35.90788 35.529763,35.907736 0 0 0 35.52962,-35.90788 35.529763,35.907736 0 0 0 -35.52962,-35.907888 z M 103.57678,115.6837 c 2.89901,0 5.18843,1.08064 6.86883,3.24167 1.69323,2.14622 2.53989,5.06962 2.53989,8.77 v 1.99833 H 96.707428 c 0.153929,2.81229 0.885262,4.95821 2.193663,6.43837 1.321229,1.46535 3.155599,2.19831 5.503019,2.19831 1.35972,0 2.67455,-0.19238 3.94447,-0.57722 1.28275,-0.38484 2.55249,-0.96252 3.80958,-1.7322 v 3.86333 c -1.26992,0.62167 -2.57164,1.09547 -3.9057,1.4211 -1.33406,0.32564 -2.68768,0.48835 -4.06022,0.48835 -3.43776,0 -6.163361,-1.15432 -8.177277,-3.46336 -2.001086,-2.30904 -3.001883,-5.43225 -3.001883,-9.36945 0,-4.07042 0.94942,-7.29699 2.847888,-9.68003 1.911294,-2.39785 4.483282,-3.5972 7.715812,-3.5972 z m 12.66072,0.59945 h 4.17546 l 5.71438,8.85889 5.71489,-8.85889 h 4.17494 l -7.79229,12.10055 8.1964,12.76615 h -4.17494 l -6.273,-9.76891 -6.27248,9.76891 h -4.17546 l 8.37003,-13.01058 z m -12.62248,2.86442 c -1.97544,0 -3.55973,0.64394 -4.752685,1.93167 -1.180129,1.28773 -1.859568,3.10082 -2.039152,5.43946 l 12.621967,-0.0222 c -0.0256,-2.23503 -0.57088,-4.01844 -1.63556,-5.35058 -1.05185,-1.33213 -2.45004,-1.99833 -4.19457,-1.99833 z"
       id="path10"
       inkscape:connector-curvature="0" />
    <path
       style="fill:#a0a0a0;stroke:none;stroke-width:1.01015258"
       d="M 414.88839,614.90737 C 348.83342,603.96642 301.25814,547.88003 301.25814,480.94892 c 0,-36.63315 13.71233,-69.5907 39.75748,-95.55703 19.94538,-19.88501 41.05642,-31.34862 68.82201,-37.37139 12.59079,-2.73113 39.31976,-2.45674 52.50662,0.539 32.79601,7.45048 59.95541,24.97267 79.94473,51.57722 33.61009,44.73295 35.32283,109.60722 4.12036,156.06857 -20.13432,29.98056 -49.3079,49.79195 -84.80317,57.58873 -10.04124,2.20563 -36.33945,2.83235 -46.71778,1.11335 z m -4.26912,-80.9971 c 3.39253,-0.8791 7.90015,-2.4819 10.01691,-3.5618 l 3.84866,-1.96344 v -7.05053 c 0,-3.87781 -0.16441,-7.05054 -0.36535,-7.05054 -0.20095,0 -3.26929,1.30865 -6.81853,2.90811 -26.78666,12.07138 -47.65765,3.05896 -50.98391,-22.01565 l -0.68133,-5.13613 h 31.09199 31.09199 l -0.59137,-10.44283 c -0.59034,-10.42445 -3.05152,-20.17796 -6.50455,-25.77699 -2.78189,-4.51079 -9.68715,-11.3264 -13.44357,-13.26905 -13.20554,-6.8293 -32.19452,-3.44175 -42.80993,7.63709 -8.6523,9.03005 -12.75719,21.27326 -12.84664,38.31625 -0.062,11.81917 1.66379,20.88493 5.3521,28.11463 2.71228,5.31649 10.36781,13.38588 15.61885,16.4632 9.13774,5.35507 24.00464,6.46063 38.02468,2.82768 z m 53.67809,-18.36113 c 6.1601,-9.58245 11.48638,-17.42376 11.83617,-17.42513 0.34978,-10e-4 5.73285,7.95246 11.96235,17.67517 l 11.32636,17.67767 h 7.98817 c 4.39349,0 7.98816,-0.19536 7.98816,-0.43413 0,-0.23877 -6.83514,-11.10182 -15.18923,-24.14011 l -15.18922,-23.70599 10.30507,-16.01345 c 5.6678,-8.80739 12.27268,-19.08178 14.67753,-22.83197 l 4.37246,-6.81853 -8.32715,0.0277 -8.32713,0.0277 -9.98425,15.65366 c -5.49135,8.60952 -10.31679,15.85917 -10.72321,16.11035 -0.40641,0.25118 -5.39993,-6.80543 -11.09672,-15.68135 l -10.35777,-16.13805 h -7.96091 c -4.37849,0 -7.96091,0.23579 -7.96091,0.52399 0,0.28819 6.35497,10.34666 14.12216,22.35214 7.76719,12.00548 13.80981,22.33841 13.42806,22.96205 -0.38177,0.62365 -6.41021,9.998 -13.39656,20.83188 -6.98633,10.83389 -13.75973,21.42178 -15.052,23.52866 l -2.34956,3.83068 8.35397,-0.29515 8.35397,-0.29514 z"
       id="path4645"
       inkscape:connector-curvature="0"
       transform="scale(0.26458333)" />
  </g>
</svg>
