<svg xmlns="http://www.w3.org/2000/svg" xmlns:xlink="http://www.w3.org/1999/xlink" viewBox="0 0 1546.32201 313.18631"><defs><pattern id="adc05b51-3dc0-4d77-bb78-2d0504fd0f6e" data-name="新增圖樣色票 13" width="64.60372" height="64.60372" patternTransform="translate(3.11543 -87.39547)" patternUnits="userSpaceOnUse" viewBox="0 0 64.604 64.604"><rect width="64.60372" height="64.60372" fill="none"/><rect width="64.60372" height="64.60372" fill="#06fb5c"/></pattern><pattern id="b9850f81-1cc2-407d-87ca-9cbb7c436c47" data-name="新增圖樣色票 7" width="82.7234" height="82.7234" patternTransform="translate(-43.36861 -110.25451)" patternUnits="userSpaceOnUse" viewBox="0 0 82.723 82.723"><rect width="82.7234" height="82.7234" fill="none"/><rect width="82.7234" height="82.7234" fill="#ef2b53"/></pattern></defs><title>bg_block</title><g id="b5df82c4-baba-4de2-973b-9d21bfbbbf8f" data-name="圖層 2"><g id="ebd82623-9813-4717-a616-a0ad2661fed4" data-name="圖層 1"><g id="b4ea92f5-60c6-4e68-a751-2daf716dff94" data-name="bg_block"><rect y="181.79974" width="206.8849" height="131.38657" fill="#ef2b53"/><rect x="203.8954" y="181.79974" width="99.85096" height="65.69329" fill="#eb6114"/><rect x="203.8954" y="247.49303" width="99.85096" height="65.69329" fill="#f0fe2a"/><rect x="300.70709" y="181.79974" width="206.8849" height="131.38657" fill="#ee2a9b"/><rect x="1295.7491" width="250.57291" height="250.57291" transform="translate(1546.32201 -1295.7491) rotate(90)" fill="#f0fe2a"/><rect x="981.42097" width="250.57291" height="250.57291" transform="translate(1231.99388 -981.42097) rotate(90)" fill="#f0fe2a"/><rect x="103.77043" y="-98.33048" width="250.57291" height="447.23386" transform="translate(354.34334 -103.77043) rotate(90)" fill="#f0fe2a"/><path d="M267.71973,150.11416a4.7043,4.7043,0,0,1-2.10742.52636,5.82227,5.82227,0,0,1-2.37109-.52636,6.06285,6.06285,0,0,1-3.16065-3.42481,4.96062,4.96062,0,0,1-.39551-1.97558,5.78709,5.78709,0,0,1,.52686-2.37012,6.76953,6.76953,0,0,1,3.16113-3.293q10.27368-4.875,11.854-13.1709a.93.93,0,0,0-.79053-.79h-.52686a13.54768,13.54768,0,0,1-9.15381-3.22754,12.029,12.029,0,0,1,.13184-17.583,14.08436,14.08436,0,0,1,9.41748-3.293q6.97924,0,10.73389,4.874,3.75366,4.87353,3.7539,13.56543a31.59653,31.59653,0,0,1-5.53173,18.24219A35.29957,35.29957,0,0,1,267.71973,150.11416Z" fill="url(#adc05b51-3dc0-4d77-bb78-2d0504fd0f6e)"/><path d="M1096.30455,168.19523a15.42957,15.42957,0,0,1-20.01953,0,12.38738,12.38738,0,0,1-3.95117-9.4834,12.70566,12.70566,0,0,1,4.0166-9.61426,14.8528,14.8528,0,0,1,19.88867,0,12.71265,12.71265,0,0,1,4.0166,9.61426A12.384,12.384,0,0,1,1096.30455,168.19523Zm-4.80761-34.11328a7.66454,7.66454,0,0,1-10.27247,0,7.91482,7.91482,0,0,1-2.56836-5.00489l-4.083-39.11718L1074.1776,77.579a7.57364,7.57364,0,0,1,2.23926-5.46582,7.26017,7.26017,0,0,1,5.40039-2.30469h9.08789a7.26266,7.26266,0,0,1,5.39941,2.30469A7.12927,7.12927,0,0,1,1098.412,77.579l-.39453,12.38086-3.95215,39.11718A7.91476,7.91476,0,0,1,1091.49694,134.082Z" fill="url(#adc05b51-3dc0-4d77-bb78-2d0504fd0f6e)"/><path d="M1419.31959,101.54555a21.8395,21.8395,0,0,1,15.47558,37.27344,21.79291,21.79291,0,1,1-30.81933-30.82031A20.81865,20.81865,0,0,1,1419.31959,101.54555Zm0,33.84864a11.783,11.783,0,0,0,8.56152-3.49024,11.45187,11.45187,0,0,0,3.55566-8.49512,12.11745,12.11745,0,0,0-24.23437,0,11.45187,11.45187,0,0,0,3.55566,8.49512A11.77987,11.77987,0,0,0,1419.31959,135.39419Z" fill="url(#adc05b51-3dc0-4d77-bb78-2d0504fd0f6e)"/><path d="M269.37931,150.11416a4.70437,4.70437,0,0,1-2.10743.52636,5.82234,5.82234,0,0,1-2.37109-.52636,6.06286,6.06286,0,0,1-3.16064-3.42481,4.96045,4.96045,0,0,1-.39551-1.97558,5.78708,5.78708,0,0,1,.52685-2.37012,6.76951,6.76951,0,0,1,3.16114-3.293q10.27368-4.875,11.854-13.1709a.93.93,0,0,0-.79053-.79h-.52685a13.54765,13.54765,0,0,1-9.15381-3.22754,12.029,12.029,0,0,1,.13183-17.583,14.08439,14.08439,0,0,1,9.41749-3.293q6.97924,0,10.73388,4.874,3.75366,4.87353,3.75391,13.56543a31.59646,31.59646,0,0,1-5.53174,18.24219A35.2996,35.2996,0,0,1,269.37931,150.11416Z" fill="url(#b9850f81-1cc2-407d-87ca-9cbb7c436c47)"/><path d="M1097.96413,168.19523a15.42957,15.42957,0,0,1-20.01953,0,12.38739,12.38739,0,0,1-3.95118-9.4834,12.70563,12.70563,0,0,1,4.01661-9.61426,14.8528,14.8528,0,0,1,19.88867,0,12.71269,12.71269,0,0,1,4.0166,9.61426A12.384,12.384,0,0,1,1097.96413,168.19523Zm-4.80762-34.11328a7.66453,7.66453,0,0,1-10.27246,0,7.91472,7.91472,0,0,1-2.56836-5.00489l-4.083-39.11718-.39551-12.38086a7.57364,7.57364,0,0,1,2.23926-5.46582,7.26018,7.26018,0,0,1,5.40039-2.30469h9.08789a7.26267,7.26267,0,0,1,5.39942,2.30469,7.12934,7.12934,0,0,1,2.10742,5.46582l-.39453,12.38086-3.95215,39.11718A7.91477,7.91477,0,0,1,1093.15651,134.082Z" fill="url(#b9850f81-1cc2-407d-87ca-9cbb7c436c47)"/><path d="M1420.97916,101.54555a21.83951,21.83951,0,0,1,15.47559,37.27344,21.79291,21.79291,0,1,1-30.81934-30.82031A20.81865,20.81865,0,0,1,1420.97916,101.54555Zm0,33.84864a11.783,11.783,0,0,0,8.56152-3.49024,11.45188,11.45188,0,0,0,3.55567-8.49512,12.11746,12.11746,0,0,0-24.23438,0,11.45188,11.45188,0,0,0,3.55567,8.49512A11.77984,11.77984,0,0,0,1420.97916,135.39419Z" fill="url(#b9850f81-1cc2-407d-87ca-9cbb7c436c47)"/></g></g></g></svg>