<svg xmlns="http://www.w3.org/2000/svg" xmlns:xlink="http://www.w3.org/1999/xlink" viewBox="0 0 467.44115 350.41639"><defs><clipPath id="clip-path"><path d="M12.12692,81.46177a13.8661,13.8661,0,0,1,4.09538-.07134c13.40177,1.76517,89.39542,11.34864,119.38507,5.8113,32.94722-6.08342,57.28091-22.81284,67.92691-22.05241s23.57326-3.80214,28.13583-7.60428,29.65669-5.323,41.06311,12.16685,11.40642,41.894,5.323,52.12454l-3.36067,5.65167a13.84258,13.84258,0,0,0-1.793,9.22064c.65476,4.16929,1.196,10.4554-.16929,15.9065-1.44,5.74938-10.86211,12.95372-18.92143,17.21966a13.82741,13.82741,0,0,0-7.45861,13.1293,30.4152,30.4152,0,0,1-.23494,6.26075c-1.52085,11.28055-9.38794,40.93725-19.52231,45.49981l-8.52,3.83577a13.93358,13.93358,0,0,1-3.12654.98373c-4.17087.79214-15.67392,3.56789-17.85977,10.38906-2.68048,8.36471-31.32738,54.75082-48.94191,56.27168s-48.03164-10.646-67.04234-15.20856S26.35455,278.82959,14.1877,275.78788A18.19834,18.19834,0,0,1,1.06632,263.00074,13.41849,13.41849,0,0,1,.5,259.06872V95.18688A13.91443,13.91443,0,0,1,12.12691,81.46177Z" style="fill:none"/></clipPath><clipPath id="clip-path-2"><path d="M213.43882,113.05628s-14.17362-32.13986-3.67437-48.00791,23.16371-5.98247,33.18068-15.10761,47.84241-33.45883,52.12274-41.82354S311.515-.24749,318.3589,1.27337s25.09413,15.20856,42.584,19.77113,48.66739,26.615,56.27167,29.65669,32.91163,12.16685,16.0756,30.41712-57.89914.76043-67.02427-3.80214S343.453,63.62846,332.04661,64.38889s-22.05241-4.56257-25.85455,6.84385-18.34067,32.17821-26.28,46.50623-27.71042,26.49486-42.15855,18.13015S217.92953,126.00832,213.43882,113.05628Z" style="fill:none"/></clipPath><clipPath id="clip-path-3"><path d="M187.56529,152.80639s3.04171-3.09788,3.04171-14.19993-1.53984-20.98761,10.646-23.26889.038,0,12.18583-2.28129,69.18,4.56257,88.9511,0,20.53155-4.00157,30.41712-.47993,60.12323,11.12593,75.30708,7.32379,47.88225-10.646,54.7261-6.08343,5.323,29.312-6.08342,38.98968-37.261,13.12263-70.7198,12.921-62.3551-2.84011-75.28238,0-86.65083,26.74289-97.3158,25.05728S184.52358,167.00632,187.56529,152.80639Z" style="fill:none"/></clipPath><clipPath id="clip-path-4"><path d="M151.95657,211.1515s-7.47287-14.05152,0-27.55732,3.56818-25.27533,19.63973-24.26835,61.36067,11.63765,80.86858,11.2001,35.4769-16.20381,46.88332-10.50116,81.3658,1.90129,93.53265-1.24161,27.37541-9.96688,36.50054-8.456,11.42488,29.38364-7.59505,42.06226-38.79106,21.04333-49.437,18.762-70.86-2.28129-79.915,3.80214-77.74109,19.537-86.54287,27.25832S159.69226,228.64134,151.95657,211.1515Z" style="fill:none"/></clipPath><clipPath id="clip-path-5"><path d="M130.38805,304.63225c-3.54958-.862-12.02171-16.67753-3.657-29.6048s5.57236-27.37541,14.57281-35.74012,3.85941-20.0246,19.35721-16.47594,48.1962,18.739,68.72776,21.02939,34.97969,2.233,44.10482,6.06382,14.44813,25.88328,25.85455,35.00841,41.06312,38.0214,41.82354,47.14654-12.40086,12.92727-18.74749,14.44813-20.99072,6.84385-27.35638,0-60.45058-41.06311-68.38781-47.907-48.233-5.27644-68.3878,3.065S144.17072,307.97932,130.38805,304.63225Z" style="fill:none"/></clipPath><pattern id="新增圖樣色票_6" data-name="新增圖樣色票 6" width="64.60372" height="64.60372" patternTransform="translate(-33.16316 109.1644) scale(0.99278)" patternUnits="userSpaceOnUse" viewBox="0 0 64.604 64.604"><rect width="64.60372" height="64.60372" style="fill:none"/><rect width="64.60372" height="64.60372" style="fill:#d7348c"/></pattern><pattern id="新增圖樣色票_1" data-name="新增圖樣色票 1" width="82.7234" height="82.7234" patternTransform="translate(112.33999 31.74332) scale(0.99278)" patternUnits="userSpaceOnUse" viewBox="0 0 82.723 82.723"><rect width="82.7234" height="82.7234" style="fill:none"/><rect width="82.7234" height="82.7234" style="fill:#de2f50"/></pattern><pattern id="新增圖樣色票_1-27" data-name="新增圖樣色票 1" width="82.7234" height="82.7234" patternTransform="translate(169.20311 43.93129) scale(0.99278)" patternUnits="userSpaceOnUse" viewBox="0 0 82.723 82.723"><rect width="82.7234" height="82.7234" style="fill:none"/><rect width="82.7234" height="82.7234" style="fill:#de2f50"/></pattern><pattern id="新增圖樣色票_6-163" data-name="新增圖樣色票 6" width="64.60372" height="64.60372" patternTransform="translate(-22.44851 139.34124) scale(0.99278)" patternUnits="userSpaceOnUse" viewBox="0 0 64.604 64.604"><rect width="64.60372" height="64.60372" style="fill:none"/><rect width="64.60372" height="64.60372" style="fill:#d7348c"/></pattern></defs><title>handy_1</title><g id="圖層_2" data-name="圖層 2"><g id="hand_left"><path d="M408.03139,45.6408S396.176,47.15252,396.176,59.31937s25.21161,21.44847,33.45883,18.25027,12.08029-11.01422,6.59836-15.64615S426.98407,50.71945,408.03139,45.6408Z" style="fill:#1a4c36"/><path d="M417.48549,121.83643s-9.14261,8.36531-5.59394,16.26852,67.61854.86137,41.56509-25.79554C453.45664,112.30941,429.16287,111.85936,417.48549,121.83643Z" style="fill:#1a4c36"/><path d="M392.88085,158.78316l30.379-8.456s7.38892,2.58532,4.34721,12.56738-16.72942,16.54553-26.3615,17.82636-14.19466-1.2525-14.70161-8.123S385.53,163.95387,392.88085,158.78316Z" style="fill:#1a4c36"/><path d="M322.42425,332.5665c-12.43,3.54866-13.444,6.59038-19.02043,3.04171" style="fill:#dd8d25"/><path d="M292.43426,320.39965s3.62535-12.69738,16.03908-14.064,23.88889,8.19353,28.29365,16.95872-1.91269,5.72348-14.34274,9.27214-13.444,6.59038-19.02043,3.04171C303.40382,335.60821,291.984,333.07345,292.43426,320.39965Z" style="fill:#1a4c36"/><path d="M148.14771,306.205c-17.61452,1.52085-48.03164-10.646-67.04234-15.20856S26.35455,278.82959,14.1877,275.78788.5,260.57932.5,260.57932V83.39959l13.6877-2.28128s88.47246,12.16685,121.41967,6.08342,57.28091-22.81284,67.92691-22.05241a38.13833,38.13833,0,0,0,6.23024-.10019" style="fill:none;stroke-miterlimit:10;stroke:url(#新增圖樣色票_6)"/><path d="M213.43882,113.05628s-14.17362-32.13986-3.67437-48.00791,23.16371-5.98247,33.18068-15.10761,47.84241-33.45883,52.12274-41.82354S311.515-.24749,318.3589,1.27337s25.09413,15.20856,42.584,19.77113,48.66739,26.615,56.27167,29.65669,32.91163,12.16685,16.0756,30.41712-57.89914.76043-67.02427-3.80214S343.453,63.62846,332.04661,64.38889s-22.05241-4.56257-25.85455,6.84385c-3.4736,10.42078-15.90826,28.65831-24.0852,42.65778" style="fill:none;stroke-miterlimit:10;stroke:url(#新增圖樣色票_6)"/><path d="M187.92578,161.506a19.5419,19.5419,0,0,1-.36049-8.69956s3.04171-3.09788,3.04171-14.19993-1.53984-20.98761,10.646-23.26889.038,0,12.18583-2.28129,69.18,4.56257,88.9511,0,20.53155-4.00157,30.41712-.47993,60.12323,11.12593,75.30708,7.32379,47.88225-10.646,54.7261-6.08343,5.323,29.312-6.08342,38.98968c-4.62127,3.92089-11.61411,6.81871-20.52339,8.86545" style="fill:none;stroke-miterlimit:10;stroke:url(#新增圖樣色票_6)"/><path d="M160.661,222.8115c-3.91148-3.84017-7.01516-7.84074-8.70441-11.66,0,0-7.47287-14.05152,0-27.55732s3.56818-25.27533,19.63973-24.26835,61.36067,11.63765,80.86858,11.2001,35.4769-16.20381,46.88332-10.50116,81.3658,1.90129,93.53265-1.24161,27.37541-9.96688,36.50054-8.456,11.42488,29.38364-7.59505,42.06226-38.79106,21.04333-49.437,18.762-70.86-2.28129-79.915,3.80214c-8.42085,5.65735-63.8044,17.56-79.24529,25.42753" style="fill:none;stroke-miterlimit:10;stroke:url(#新增圖樣色票_1)"/><path d="M209.76447,239.37269c-17.98907-5.46721-37.97816-14.01386-49.1034-16.5613-15.4978-3.54866-10.35675,8.11123-19.35721,16.47594s-6.2081,22.81284-14.57281,35.74012.10742,28.74279,3.657,29.6048c13.78267,3.34707,7.74942,5.37489,27.90421-2.96654s60.45058-9.90885,68.3878-3.065,62.02215,41.06311,68.38781,47.907,21.00975,1.52086,27.35638,0,19.50792-5.323,18.74749-14.44813-30.41712-38.0214-41.82354-47.14654-16.72941-31.17755-25.85455-35.00841-23.57327-3.77342-44.10482-6.06382a114.11424,114.11424,0,0,1-19.62436-4.46809s-12.55892-1.342-16.87619,12.4617-3.336,20.91177-5.66026,26.23477c0,0-3.512,7.44812,2.95162,15.43262" style="fill:none;stroke-miterlimit:10;stroke:url(#新增圖樣色票_1)"/><path d="M408.03139,45.6408S396.176,47.15252,396.176,59.31937s25.21161,21.44847,33.45883,18.25027,12.08029-11.01422,6.59836-15.64615S426.98407,50.71945,408.03139,45.6408Z" style="fill:none;stroke-miterlimit:10;stroke:url(#新增圖樣色票_6)"/><path d="M417.48549,121.83643s-9.14261,8.36531-5.59394,16.26852,67.61854.86137,41.56509-25.79554C453.45664,112.30941,429.16287,111.85936,417.48549,121.83643Z" style="fill:none;stroke-miterlimit:10;stroke:url(#新增圖樣色票_6)"/><path d="M392.88085,158.78316l30.379-8.456s7.38892,2.58532,4.34721,12.56738-16.72942,16.54553-26.3615,17.82636-14.19466-1.2525-14.70161-8.123S385.53,163.95387,392.88085,158.78316Z" style="fill:none;stroke-miterlimit:10;stroke:url(#新增圖樣色票_6)"/><path d="M292.43426,320.39965s3.62535-12.69738,16.03908-14.064,23.88889,8.19353,28.29365,16.95872-1.91269,5.72348-14.34274,9.27214-13.444,6.59038-19.02043,3.04171C303.40382,335.60821,291.984,333.07345,292.43426,320.39965Z" style="fill:none;stroke-miterlimit:10;stroke:url(#新增圖樣色票_1)"/><path d="M384.1986,31.50384s-14.51081-.19357-15.65145,16.91606,1.44649,24.89019,3.765,31.64591" style="fill:none;stroke-miterlimit:10;stroke:url(#新增圖樣色票_1)"/><path d="M263.44765,34.36777s-5.54277,29.13966,10.046,43.83842,17.82861,13.37684,22.602,12.707" style="fill:none;stroke-miterlimit:10;stroke:url(#新增圖樣色票_1)"/><path d="M394.797,120.93069s-9.52041,2.87005-12.18191,14.79756,0,24.29652,0,24.29652" style="fill:none;stroke-miterlimit:10;stroke:url(#新增圖樣色票_1)"/><path d="M267.06127,114.40354s-10.297,1.69446-12.1981,17.28323-.64343,21.131-1.52086,29.98507l-.87743,8.85409" style="fill:none;stroke-miterlimit:10;stroke:url(#新增圖樣色票_1)"/><path d="M365.43621,161.78929a26.36929,26.36929,0,0,0-9.81633,23.9031c1.90107,15.57354,3.70481,21.20836,6.79518,24.47437" style="fill:none;stroke-miterlimit:10;stroke:url(#新增圖樣色票_1)"/><path d="M234.72652,169.21228s-12.908,2.5826-12.54476,20.74-1.13868,25.721-.00752,32.205,5.131,10.77575,8.04453,10.91116" style="fill:none;stroke-miterlimit:10;stroke:url(#新增圖樣色票_1)"/><path d="M294.873,280.37678s-13.39482-4.62249-19.85846,5.66008S257.902,308.29322,260.1847,321.69724" style="fill:none;stroke-miterlimit:10;stroke:url(#新增圖樣色票_1)"/><path d="M168.92439,77.28985S166.2733,89.483,161.71074,97.46751s-15.71963,12.92728-20.40688,23.95348-5.44768,30.41712-10.77067,37.261-17.87006,17.6555-19.0107,38.29434S86.42836,240.428,81.48558,256.77718s-3.80214,24.71391-.38021,34.21926" style="fill:none;stroke-miterlimit:10;stroke:url(#新增圖樣色票_1)"/><path d="M130.034,88.00384s-6.72484,16.30752-16.99062,24.292-12.92727,19.39091-17.87005,34.97968-25.09413,28.13584-29.27648,46.38611-28.516,25.4561-28.516,50.17913,3.4756,30.1847,8.01133,39.05039" style="fill:none;stroke-miterlimit:10;stroke:url(#新增圖樣色票_1)"/><path d="M83.606,88.00384c-.97977,1.85939-10.48512,12.04557-18.84982,21.78082S55.631,135.86912,41.1829,148.036,6.58342,178.07288,4.68235,199.36486.5,236.24562.5,236.24562" style="fill:none;stroke-miterlimit:10;stroke:url(#新增圖樣色票_1)"/><ellipse cx="311.72284" cy="10.80056" rx="15.62718" ry="9.43835" style="fill:none;stroke-miterlimit:10;stroke:url(#新增圖樣色票_6)"/><ellipse cx="311.72284" cy="10.19301" rx="14.62125" ry="8.8308" style="fill:none;stroke-miterlimit:10;stroke:url(#新增圖樣色票_6)"/><ellipse cx="311.72284" cy="9.58546" rx="13.61532" ry="8.22325" style="fill:none;stroke-miterlimit:10;stroke:url(#新增圖樣色票_6)"/><ellipse cx="311.72284" cy="8.97791" rx="12.6094" ry="7.6157" style="fill:none;stroke-miterlimit:10;stroke:url(#新增圖樣色票_6)"/><ellipse cx="311.72284" cy="8.37036" rx="11.60347" ry="7.00815" style="fill:none;stroke-miterlimit:10;stroke:url(#新增圖樣色票_6)"/><ellipse cx="311.72284" cy="7.76281" rx="10.59754" ry="6.4006" style="fill:none;stroke-miterlimit:10;stroke:url(#新增圖樣色票_6)"/><ellipse cx="311.72284" cy="7.15526" rx="9.59162" ry="5.79305" style="fill:none;stroke-miterlimit:10;stroke:url(#新增圖樣色票_6)"/><ellipse cx="311.72284" cy="6.54771" rx="8.58569" ry="5.1855" style="fill:none;stroke-miterlimit:10;stroke:url(#新增圖樣色票_6)"/><ellipse cx="311.72284" cy="5.94016" rx="7.57976" ry="4.57795" style="fill:none;stroke-miterlimit:10;stroke:url(#新增圖樣色票_6)"/><ellipse cx="311.72284" cy="5.33261" rx="6.57384" ry="3.9704" style="fill:none;stroke-miterlimit:10;stroke:url(#新增圖樣色票_6)"/><path d="M293.80635,9.96234s-3.20307,10.13162,1.3595,17.7359,0,15.58877,0,15.58877,3.23689-11.40642,9.98315-12.92727,19.67354-7.60428,23.09547-17.87006a26.19507,26.19507,0,0,0,.96234-6.06547" style="fill:none;stroke-linecap:round;stroke-linejoin:round;stroke:url(#新增圖樣色票_6)"/><path d="M287.92913,15.70674s-2.10383,4.19711,0,10.85086,1.53351,10.8361.96319,13.11738" style="fill:none;stroke-linecap:round;stroke-linejoin:round;stroke:url(#新增圖樣色票_6)"/><path d="M335.44764,9.90183s.70339,10.74769-8.09762,17.789-16.40529,10.08305-18.11625,13.505" style="fill:none;stroke-linecap:round;stroke-linejoin:round;stroke:url(#新增圖樣色票_6)"/><line x1="288.20659" y1="27.48714" x2="280.90782" y2="34.36777" style="fill:none;stroke-linecap:round;stroke-linejoin:round;stroke:url(#新增圖樣色票_6)"/><line x1="277.86611" y1="27.69086" x2="286.9941" y2="21.0445" style="fill:none;stroke-linecap:round;stroke-linejoin:round;stroke:url(#新增圖樣色票_6)"/><line x1="324.62331" y1="29.77705" x2="332.42682" y2="34.36777" style="fill:none;stroke-linecap:round;stroke-linejoin:round;stroke:url(#新增圖樣色票_6)"/><line x1="331.86399" y1="23.6072" x2="341.93966" y2="27.97228" style="fill:none;stroke-linecap:round;stroke-linejoin:round;stroke:url(#新增圖樣色票_6)"/><line x1="335.461" y1="16.48193" x2="341.93217" y2="20.23891" style="fill:none;stroke-linecap:round;stroke-linejoin:round;stroke:url(#新增圖樣色票_6)"/><ellipse cx="268.03028" cy="258.52163" rx="9.43835" ry="15.62718" transform="translate(-83.14804 382.40648) rotate(-63.39671)" style="fill:none;stroke-miterlimit:10;stroke:url(#新增圖樣色票_6)"/><ellipse cx="268.30235" cy="257.97841" rx="8.8308" ry="14.62125" transform="translate(-82.51209 382.34978) rotate(-63.39671)" style="fill:none;stroke-miterlimit:10;stroke:url(#新增圖樣色票_6)"/><ellipse cx="268.57441" cy="257.43518" rx="8.22325" ry="13.61532" transform="translate(-81.87614 382.29308) rotate(-63.39671)" style="fill:none;stroke-miterlimit:10;stroke:url(#新增圖樣色票_6)"/><ellipse cx="268.84648" cy="256.89195" rx="7.6157" ry="12.6094" transform="translate(-81.24019 382.23638) rotate(-63.39671)" style="fill:none;stroke-miterlimit:10;stroke:url(#新增圖樣色票_6)"/><ellipse cx="269.11855" cy="256.34872" rx="7.00815" ry="11.60347" transform="translate(-80.60424 382.17967) rotate(-63.39671)" style="fill:none;stroke-miterlimit:10;stroke:url(#新增圖樣色票_6)"/><ellipse cx="269.39061" cy="255.80549" rx="6.4006" ry="10.59754" transform="translate(-79.9683 382.12297) rotate(-63.39671)" style="fill:none;stroke-miterlimit:10;stroke:url(#新增圖樣色票_6)"/><ellipse cx="269.66268" cy="255.26227" rx="5.79305" ry="9.59162" transform="translate(-79.33235 382.06627) rotate(-63.39671)" style="fill:none;stroke-miterlimit:10;stroke:url(#新增圖樣色票_6)"/><ellipse cx="269.93475" cy="254.71904" rx="5.1855" ry="8.58569" transform="translate(-78.6964 382.00957) rotate(-63.39671)" style="fill:none;stroke-miterlimit:10;stroke:url(#新增圖樣色票_6)"/><ellipse cx="270.20682" cy="254.17581" rx="4.57795" ry="7.57976" transform="translate(-78.06045 381.95287) rotate(-63.39671)" style="fill:none;stroke-miterlimit:10;stroke:url(#新增圖樣色票_6)"/><ellipse cx="270.47888" cy="253.63258" rx="3.9704" ry="6.57384" transform="translate(-77.4245 381.89617) rotate(-63.39671)" style="fill:none;stroke-miterlimit:10;stroke:url(#新增圖樣色票_6)"/><path d="M257.0743,246.43823c.00375-.17979-11.91653,2.65674-11.41506,19.77769.25964,8.86426-6.98081,13.93839-6.98081,13.93839s8.00211-8.7493,14.71519-7.08809,20.99595,2.01081,28.65271-5.63574a16.04009,16.04009,0,0,0,2.54324-3.78531" style="fill:none;stroke-linecap:round;stroke-linejoin:round;stroke:url(#新增圖樣色票_6)"/><path d="M252.19341,245.95537s-11.77838,3.21753-12.49393,16a18.49246,18.49246,0,0,1-5.01289,12.15995" style="fill:none;stroke-linecap:round;stroke-linejoin:round;stroke:url(#新增圖樣色票_6)"/><path d="M288.41974,270.58679s-2.958,7.68028-13.98041,10.035-19.18373,1.66908-22.24592,3.96254" style="fill:none;stroke-linecap:round;stroke-linejoin:round;stroke:url(#新增圖樣色票_6)"/><line x1="239.5313" y1="262.91076" x2="229.92405" y2="265.79446" style="fill:none;stroke-linecap:round;stroke-linejoin:round;stroke:url(#新增圖樣色票_6)"/><line x1="229.15873" y1="257.53479" x2="241.33226" y2="255.27254" style="fill:none;stroke-linecap:round;stroke-linejoin:round;stroke:url(#新增圖樣色票_6)"/><line x1="233.35547" y1="248.83808" x2="245.70714" y2="249.70354" style="fill:none;stroke-linecap:round;stroke-linejoin:round;stroke:url(#新增圖樣色票_6)"/><line x1="271.06708" y1="281.26602" x2="275.98866" y2="288.86521" style="fill:none;stroke-linecap:round;stroke-linejoin:round;stroke:url(#新增圖樣色票_6)"/><line x1="280.30411" y1="278.99183" x2="287.35832" y2="287.40676" style="fill:none;stroke-linecap:round;stroke-linejoin:round;stroke:url(#新增圖樣色票_6)"/><line x1="286.71107" y1="274.2317" x2="290.81471" y2="280.48879" style="fill:none;stroke-linecap:round;stroke-linejoin:round;stroke:url(#新增圖樣色票_6)"/><ellipse cx="320.11663" cy="119.22302" rx="15.62718" ry="9.43835" style="fill:none;stroke-miterlimit:10;stroke:url(#新增圖樣色票_6)"/><ellipse cx="320.11663" cy="118.61547" rx="14.62125" ry="8.8308" style="fill:none;stroke-miterlimit:10;stroke:url(#新增圖樣色票_6)"/><ellipse cx="320.11663" cy="118.00792" rx="13.61532" ry="8.22325" style="fill:none;stroke-miterlimit:10;stroke:url(#新增圖樣色票_6)"/><ellipse cx="320.11663" cy="117.40037" rx="12.6094" ry="7.6157" style="fill:none;stroke-miterlimit:10;stroke:url(#新增圖樣色票_6)"/><ellipse cx="320.11663" cy="116.79282" rx="11.60347" ry="7.00815" style="fill:none;stroke-miterlimit:10;stroke:url(#新增圖樣色票_6)"/><ellipse cx="320.11663" cy="116.18527" rx="10.59754" ry="6.4006" style="fill:none;stroke-miterlimit:10;stroke:url(#新增圖樣色票_6)"/><ellipse cx="320.11663" cy="115.57772" rx="9.59162" ry="5.79305" style="fill:none;stroke-miterlimit:10;stroke:url(#新增圖樣色票_6)"/><ellipse cx="320.11663" cy="114.97017" rx="8.58569" ry="5.1855" style="fill:none;stroke-miterlimit:10;stroke:url(#新增圖樣色票_6)"/><ellipse cx="320.11663" cy="114.36262" rx="7.57976" ry="4.57795" style="fill:none;stroke-miterlimit:10;stroke:url(#新增圖樣色票_6)"/><ellipse cx="320.11663" cy="113.75507" rx="6.57384" ry="3.9704" style="fill:none;stroke-miterlimit:10;stroke:url(#新增圖樣色票_6)"/><path d="M307.51859,111.89646s-8.93081,8.669-3.959,24.22424a25.74882,25.74882,0,0,1,0,15.58877s3.23689-11.40642,9.98316-12.92727,19.67354-7.60428,23.09546-17.87006a26.19507,26.19507,0,0,0,.96234-6.06547" style="fill:none;stroke-linecap:round;stroke-linejoin:round;stroke:url(#新增圖樣色票_6)"/><path d="M298.58778,114.40354s-6.65375,7.39767-2.26485,20.57652c2.20493,6.62092,1.5335,10.83609.96318,13.11738" style="fill:none;stroke-linecap:round;stroke-linejoin:round;stroke:url(#新增圖樣色票_6)"/><path d="M343.85479,115.22615s.69,13.84583-8.111,20.88717-16.40529,10.08305-18.11625,13.505" style="fill:none;stroke-linecap:round;stroke-linejoin:round;stroke:url(#新增圖樣色票_6)"/><line x1="296.60038" y1="135.9096" x2="289.30162" y2="142.79023" style="fill:none;stroke-linecap:round;stroke-linejoin:round;stroke:url(#新增圖樣色票_6)"/><line x1="295.81908" y1="118.95669" x2="286.53249" y2="122.74801" style="fill:none;stroke-linecap:round;stroke-linejoin:round;stroke:url(#新增圖樣色票_6)"/><line x1="286.25991" y1="136.11332" x2="294.82505" y2="129.74837" style="fill:none;stroke-linecap:round;stroke-linejoin:round;stroke:url(#新增圖樣色票_6)"/><line x1="333.0171" y1="138.19951" x2="340.82062" y2="142.79023" style="fill:none;stroke-linecap:round;stroke-linejoin:round;stroke:url(#新增圖樣色票_6)"/><line x1="340.25778" y1="132.02966" x2="350.33345" y2="136.39474" style="fill:none;stroke-linecap:round;stroke-linejoin:round;stroke:url(#新增圖樣色票_6)"/><line x1="342.80114" y1="124.29266" x2="351.81774" y2="127.31431" style="fill:none;stroke-linecap:round;stroke-linejoin:round;stroke:url(#新增圖樣色票_6)"/><ellipse cx="292.7044" cy="168.41011" rx="15.62718" ry="9.43835" transform="translate(-17.36156 34.6307) rotate(-6.57635)" style="fill:none;stroke-miterlimit:10;stroke:url(#新增圖樣色票_6)"/><ellipse cx="292.63482" cy="167.80656" rx="14.62125" ry="8.8308" transform="translate(-17.29289 34.61875) rotate(-6.57635)" style="fill:none;stroke-miterlimit:10;stroke:url(#新增圖樣色票_6)"/><ellipse cx="292.56524" cy="167.203" rx="13.61532" ry="8.22325" transform="translate(-17.22423 34.60681) rotate(-6.57635)" style="fill:none;stroke-miterlimit:10;stroke:url(#新增圖樣色票_6)"/><ellipse cx="292.49566" cy="166.59945" rx="12.6094" ry="7.6157" transform="translate(-17.15556 34.59487) rotate(-6.57635)" style="fill:none;stroke-miterlimit:10;stroke:url(#新增圖樣色票_6)"/><ellipse cx="292.42608" cy="165.9959" rx="11.60347" ry="7.00815" transform="translate(-17.0869 34.58293) rotate(-6.57635)" style="fill:none;stroke-miterlimit:10;stroke:url(#新增圖樣色票_6)"/><ellipse cx="292.3565" cy="165.39235" rx="10.59754" ry="6.4006" transform="translate(-17.01823 34.57099) rotate(-6.57635)" style="fill:none;stroke-miterlimit:10;stroke:url(#新增圖樣色票_6)"/><ellipse cx="292.28692" cy="164.7888" rx="9.59162" ry="5.79305" transform="translate(-16.94957 34.55905) rotate(-6.57635)" style="fill:none;stroke-miterlimit:10;stroke:url(#新增圖樣色票_6)"/><ellipse cx="292.21734" cy="164.18524" rx="8.58569" ry="5.1855" transform="translate(-16.8809 34.54711) rotate(-6.57635)" style="fill:none;stroke-miterlimit:10;stroke:url(#新增圖樣色票_6)"/><ellipse cx="292.14775" cy="163.58169" rx="7.57976" ry="4.57795" transform="translate(-16.81224 34.53517) rotate(-6.57635)" style="fill:none;stroke-miterlimit:10;stroke:url(#新增圖樣色票_6)"/><ellipse cx="292.07817" cy="162.97814" rx="6.57384" ry="3.9704" transform="translate(-16.74357 34.52323) rotate(-6.57635)" style="fill:none;stroke-miterlimit:10;stroke:url(#新增圖樣色票_6)"/><path d="M279.35016,163.13742s-7.87921,9.072-1.15856,23.95541a25.7488,25.7488,0,0,1,1.78533,15.4862s1.90925-11.70208,8.43694-13.98556,18.6732-9.80739,20.8969-20.39753a20.57769,20.57769,0,0,0,.26135-5.57293" style="fill:none;stroke-linecap:round;stroke-linejoin:round;stroke:url(#新增圖樣色票_6)"/><path d="M270.76524,166.3694s-5.76273,7.8296.10662,20.41909c2.94871,6.32484,2.76444,10.58917,2.45915,12.92076" style="fill:none;stroke-linecap:round;stroke-linejoin:round;stroke:url(#新增圖樣色票_6)"/><path d="M315.82862,162.84656s2.27121,12.55-5.66547,20.553-15.14256,11.89555-16.45036,15.49092" style="fill:none;stroke-linecap:round;stroke-linejoin:round;stroke:url(#新增圖樣色票_6)"/><line x1="271.25395" y1="187.68015" x2="264.79123" y2="195.3514" style="fill:none;stroke-linecap:round;stroke-linejoin:round;stroke:url(#新增圖樣色票_6)"/><line x1="268.53622" y1="170.92826" x2="259.74494" y2="175.7582" style="fill:none;stroke-linecap:round;stroke-linejoin:round;stroke:url(#新增圖樣色票_6)"/><line x1="261.00484" y1="189.06679" x2="268.78467" y2="181.76278" style="fill:none;stroke-linecap:round;stroke-linejoin:round;stroke:url(#新增圖樣色票_6)"/><line x1="307.69331" y1="185.78429" x2="315.97124" y2="189.45108" style="fill:none;stroke-linecap:round;stroke-linejoin:round;stroke:url(#新增圖樣色票_6)"/><line x1="314.17973" y1="178.82577" x2="324.68902" y2="182.0082" style="fill:none;stroke-linecap:round;stroke-linejoin:round;stroke:url(#新增圖樣色票_6)"/><line x1="315.82026" y1="170.84841" x2="325.12359" y2="172.81753" style="fill:none;stroke-linecap:round;stroke-linejoin:round;stroke:url(#新增圖樣色票_6)"/><g style="opacity:0.30000000000000004"><path d="M97.275,234.67774c4.59285-.68695,8.98972,3.26,8.98972,3.26s-3.04962,5.06068-7.64247,5.74762-8.98971-3.26-8.98971-3.26S92.6821,235.36468,97.275,234.67774Z" style="opacity:0.5;fill:url(#新增圖樣色票_1-27)"/><path d="M108.56758,217.65354c4.59285-.68695,8.98971,3.26,8.98971,3.26s-3.04961,5.06068-7.64246,5.74762-8.98972-3.26-8.98972-3.26S103.97473,218.34048,108.56758,217.65354Z" style="opacity:0.5;fill:url(#新增圖樣色票_1-27)"/><path d="M115.37177,198.58386c4.07417-2.22875,9.56246-.04033,9.56246-.04033s-1.11724,5.80192-5.19141,8.03067-9.56246.04033-9.56246.04033S111.2976,200.81261,115.37177,198.58386Z" style="opacity:0.5;fill:url(#新增圖樣色票_1-27)"/><path d="M117.1461,183.12182c4.07417-2.22874,9.56246-.04033,9.56246-.04033s-1.11724,5.80193-5.19141,8.03067-9.56246.04034-9.56246.04034S113.07193,185.35057,117.1461,183.12182Z" style="opacity:0.5;fill:url(#新增圖樣色票_1-27)"/><path d="M127.10319,165.96168c4.60732-.582,8.913,3.46414,8.913,3.46414s-3.16424,4.9898-7.77157,5.57182-8.913-3.46414-8.913-3.46414S122.49587,166.54369,127.10319,165.96168Z" style="opacity:0.5;fill:url(#新增圖樣色票_1-27)"/><path d="M137.80552,152.5786c4.60732-.582,8.913,3.46415,8.913,3.46415s-3.16424,4.9898-7.77157,5.57182-8.913-3.46415-8.913-3.46415S133.1982,153.16062,137.80552,152.5786Z" style="opacity:0.5;fill:url(#新增圖樣色票_1-27)"/><path d="M143.29342,138.03715c4.51514-1.08615,9.24047,2.46093,9.24047,2.46093s-2.59515,5.30809-7.11029,6.39424-9.24046-2.46093-9.24046-2.46093S138.77829,139.12331,143.29342,138.03715Z" style="opacity:0.5;fill:url(#新增圖樣色票_1-27)"/><path d="M145.65346,123.34622c4.51513-1.08615,9.24046,2.46093,9.24046,2.46093s-2.59515,5.30808-7.11028,6.39424-9.24047-2.46093-9.24047-2.46093S141.13832,124.43237,145.65346,123.34622Z" style="opacity:0.5;fill:url(#新增圖樣色票_1-27)"/><path d="M153.54043,109.8497c4.64389-.0224,8.43047,4.51327,8.43047,4.51327s-3.74265,4.572-8.38653,4.59441-8.43047-4.51328-8.43047-4.51328S148.89655,109.87211,153.54043,109.8497Z" style="opacity:0.5;fill:url(#新增圖樣色票_1-27)"/><path d="M162.60177,100.44657c3.48278-.0168,6.32262,3.38483,6.32262,3.38483s-2.80689,3.42887-6.28967,3.44567-6.32262-3.38483-6.32262-3.38483S159.119,100.46337,162.60177,100.44657Z" style="opacity:0.5;fill:url(#新增圖樣色票_1-27)"/><path d="M152.10192,101.96355c1.30565,3.22884-.80214,7.12665-.80214,7.12665s-4.22466-1.33715-5.53031-4.566.80214-7.12665.80214-7.12665S150.79627,98.73472,152.10192,101.96355Z" style="opacity:0.5;fill:url(#新增圖樣色票_1-27)"/><path d="M140.83234,114.95105c1.57137,3.10819-.20272,7.16878-.20272,7.16878s-4.32177-.97879-5.89314-4.087.20272-7.16878.20272-7.16878S139.261,111.84285,140.83234,114.95105Z" style="opacity:0.5;fill:url(#新增圖樣色票_1-27)"/><path d="M137.028,130.86724c1.57137,3.1082-.20271,7.16878-.20271,7.16878s-4.32177-.97879-5.89314-4.087.20271-7.16878.20271-7.16878S135.45662,127.759,137.028,130.86724Z" style="opacity:0.5;fill:url(#新增圖樣色票_1-27)"/><path d="M133.34986,142.47364c2.027,4.00946-.26149,9.24748-.26149,9.24748s-5.57493-1.26261-7.60194-5.27208.26149-9.24748.26149-9.24748S131.32285,138.46417,133.34986,142.47364Z" style="opacity:0.5;fill:url(#新增圖樣色票_1-27)"/><path d="M127.94121,155.62028c1.55656,3.07892-.20081,7.10125-.20081,7.10125s-4.28106-.96957-5.83762-4.04849.2008-7.10125.2008-7.10125S126.38464,152.54136,127.94121,155.62028Z" style="opacity:0.5;fill:url(#新增圖樣色票_1-27)"/><path d="M117.39945,172.6617c1.20505,4.17273-1.90988,8.73708-1.90988,8.73708s-5.06871-2.201-6.27376-6.37371,1.90988-8.73708,1.90988-8.73708S116.1944,168.489,117.39945,172.6617Z" style="opacity:0.5;fill:url(#新增圖樣色票_1-27)"/><path d="M111.78976,194.06481c1.20505,4.17273-1.90989,8.73708-1.90989,8.73708s-5.0687-2.201-6.27375-6.37372,1.90988-8.73708,1.90988-8.73708S110.5847,189.89208,111.78976,194.06481Z" style="opacity:0.5;fill:url(#新增圖樣色票_1-27)"/><path d="M107.263,209.18787c1.20506,4.17273-1.90988,8.73708-1.90988,8.73708s-5.0687-2.201-6.27376-6.37371,1.90989-8.73709,1.90989-8.73709S106.058,205.01514,107.263,209.18787Z" style="opacity:0.5;fill:url(#新增圖樣色票_1-27)"/><path d="M96.70712,224.29867c1.20505,4.17273-1.90988,8.73708-1.90988,8.73708s-5.06871-2.201-6.27376-6.37372,1.90988-8.73708,1.90988-8.73708S95.50207,220.12594,96.70712,224.29867Z" style="opacity:0.5;fill:url(#新增圖樣色票_1-27)"/><path d="M87.24577,239.19949c1.20505,4.17273-1.90988,8.73708-1.90988,8.73708s-5.06871-2.201-6.27376-6.37372,1.90988-8.73708,1.90988-8.73708S86.04072,235.02675,87.24577,239.19949Z" style="opacity:0.5;fill:url(#新增圖樣色票_1-27)"/></g><path d="M106.51263,115.50408c.72042,3.4075-2.037,6.87628-2.037,6.87628s-3.92545-2.05588-4.64587-5.46339,2.037-6.87627,2.037-6.87627S105.79221,112.09657,106.51263,115.50408Z" style="opacity:0.30000000000000004;fill:url(#新增圖樣色票_6-163)"/><path d="M98.1361,129.68815c1.57137,3.10819-.20271,7.16878-.20271,7.16878s-4.32178-.97879-5.89315-4.087.20272-7.16878.20272-7.16878S96.56473,126.58,98.1361,129.68815Z" style="opacity:0.30000000000000004;fill:url(#新增圖樣色票_6-163)"/><path d="M93.5642,144.15455c2.027,4.00947-.26149,9.24748-.26149,9.24748s-5.57493-1.26261-7.60194-5.27207.26149-9.24748.26149-9.24748S91.53719,140.14509,93.5642,144.15455Z" style="opacity:0.30000000000000004;fill:url(#新增圖樣色票_6-163)"/><path d="M84.71816,157.74615c1.55656,3.07891-.20081,7.10125-.20081,7.10125s-4.28106-.96958-5.83762-4.04849.2008-7.10125.2008-7.10125S83.16159,154.66723,84.71816,157.74615Z" style="opacity:0.30000000000000004;fill:url(#新增圖樣色票_6-163)"/><path d="M76.77877,172.23272c.074,4.34262-4.12452,7.93553-4.12452,7.93553s-4.31836-3.44787-4.39232-7.7905,4.12452-7.93553,4.12452-7.93553S76.70481,167.8901,76.77877,172.23272Z" style="opacity:0.30000000000000004;fill:url(#新增圖樣色票_6-163)"/><path d="M67.27013,185.93531c1.20505,4.17273-1.90988,8.73708-1.90988,8.73708s-5.06871-2.201-6.27376-6.37371,1.90989-8.73708,1.90989-8.73708S66.06508,181.76258,67.27013,185.93531Z" style="opacity:0.30000000000000004;fill:url(#新增圖樣色票_6-163)"/><path d="M59.82457,199.35968c1.20506,4.17273-1.90988,8.73708-1.90988,8.73708s-5.0687-2.201-6.27376-6.37372,1.90989-8.73708,1.90989-8.73708S58.61952,195.187,59.82457,199.35968Z" style="opacity:0.30000000000000004;fill:url(#新增圖樣色票_6-163)"/><path d="M70.53857,193.12736c4.55495-.90476,9.13468,2.82842,9.13468,2.82842s-2.8053,5.20008-7.36026,6.10483-9.13468-2.82841-9.13468-2.82841S65.98362,194.03212,70.53857,193.12736Z" style="opacity:0.30000000000000004;fill:url(#新增圖樣色票_6-163)"/><path d="M77.02713,177.708c4.5-1.14739,9.273,2.33517,9.273,2.33517s-2.52281,5.34285-7.02277,6.49024-9.273-2.33517-9.273-2.33517S72.52717,178.85539,77.02713,177.708Z" style="opacity:0.30000000000000004;fill:url(#新增圖樣色票_6-163)"/><path d="M87.67561,164.49949c4.60732-.582,8.913,3.46415,8.913,3.46415s-3.16424,4.9898-7.77156,5.57182-8.913-3.46415-8.913-3.46415S83.06828,165.08151,87.67561,164.49949Z" style="opacity:0.30000000000000004;fill:url(#新增圖樣色票_6-163)"/><path d="M98.78491,151.40509c4.60732-.582,8.913,3.46415,8.913,3.46415s-3.16425,4.9898-7.77157,5.57182-8.913-3.46415-8.913-3.46415S94.17759,151.98711,98.78491,151.40509Z" style="opacity:0.30000000000000004;fill:url(#新增圖樣色票_6-163)"/><path d="M104.06717,136.30309c4.51513-1.08615,9.24046,2.46093,9.24046,2.46093s-2.59515,5.30808-7.11028,6.39424-9.24047-2.46093-9.24047-2.46093S99.552,137.38924,104.06717,136.30309Z" style="opacity:0.30000000000000004;fill:url(#新增圖樣色票_6-163)"/><path d="M110.28149,121.05161c4.51513-1.08616,9.24046,2.46093,9.24046,2.46093s-2.59515,5.30808-7.11028,6.39423-9.24047-2.46093-9.24047-2.46093S105.76635,122.13776,110.28149,121.05161Z" style="opacity:0.30000000000000004;fill:url(#新增圖樣色票_6-163)"/><path d="M119.73311,108.6043c4.64388-.0224,8.43046,4.51328,8.43046,4.51328s-3.74264,4.572-8.38653,4.5944-8.43046-4.51328-8.43046-4.51328S115.08922,108.62671,119.73311,108.6043Z" style="opacity:0.30000000000000004;fill:url(#新增圖樣色票_6-163)"/><path d="M71.42719,95.06588c1.30565,3.22884-.80214,7.12665-.80214,7.12665s-4.22466-1.33715-5.53031-4.566.80214-7.12666.80214-7.12666S70.12154,91.83705,71.42719,95.06588Z" style="opacity:0.5;fill:url(#新增圖樣色票_1-27)"/><path d="M60.65257,108.30872c1.57137,3.1082-.20271,7.16879-.20271,7.16879s-4.32178-.9788-5.89314-4.087.20271-7.16879.20271-7.16879S59.0812,105.20053,60.65257,108.30872Z" style="opacity:0.5;fill:url(#新增圖樣色票_1-27)"/><path d="M54.19874,124.06026c1.57137,3.1082-.20272,7.16878-.20272,7.16878s-4.32177-.97879-5.89314-4.087.20272-7.16878.20272-7.16878S52.62737,120.95206,54.19874,124.06026Z" style="opacity:0.5;fill:url(#新增圖樣色票_1-27)"/><path d="M41.74831,143.3248c-.18983,4.48871-4.7454,7.94137-4.7454,7.94137s-4.24778-3.825-4.05794-8.31369,4.7454-7.94137,4.7454-7.94137S41.93815,138.83609,41.74831,143.3248Z" style="opacity:0.5;fill:url(#新增圖樣色票_1-27)"/><path d="M23.95542,161.39726c-.147,3.44688-3.64618,6.097-3.64618,6.097s-3.2609-2.93838-3.11392-6.38527,3.64617-6.097,3.64617-6.097S24.10239,157.95037,23.95542,161.39726Z" style="opacity:0.5;fill:url(#新增圖樣色票_1-27)"/><path d="M8.019,227.47777c4.59285-.68694,8.98972,3.26,8.98972,3.26s-3.04962,5.06067-7.64247,5.74762-8.98972-3.26-8.98972-3.26S3.42614,228.16472,8.019,227.47777Z" style="opacity:0.5;fill:url(#新增圖樣色票_1-27)"/><path d="M10.04951,208.48537c4.59285-.68694,8.98971,3.26,8.98971,3.26s-3.04961,5.06067-7.64246,5.74762-8.98972-3.26-8.98972-3.26S5.45666,209.17232,10.04951,208.48537Z" style="opacity:0.5;fill:url(#新增圖樣色票_1-27)"/><path d="M10.22612,188.60253c4.07417-2.22875,9.56246-.04033,9.56246-.04033s-1.11724,5.80192-5.19141,8.03067-9.56246.04033-9.56246.04033S6.152,190.83127,10.22612,188.60253Z" style="opacity:0.5;fill:url(#新增圖樣色票_1-27)"/><path d="M21.57628,170.52228c4.62227-.44818,8.80883,3.72114,8.80883,3.72114s-3.30761,4.896-7.92987,5.34412-8.80882-3.72115-8.80882-3.72115S16.954,170.97045,21.57628,170.52228Z" style="opacity:0.5;fill:url(#新增圖樣色票_1-27)"/><path d="M36.18647,157.59786c4.61638.50515,7.86334,5.44152,7.86334,5.44152s-4.23767,4.11736-8.85405,3.61221-7.86335-5.44152-7.86335-5.44152S31.57008,157.09271,36.18647,157.59786Z" style="opacity:0.5;fill:url(#新增圖樣色票_1-27)"/><path d="M51.49328,142.57426c4.63078.34924,8.04231,5.17334,8.04231,5.17334s-4.09646,4.25788-8.72724,3.90865-8.04232-5.17334-8.04232-5.17334S46.86249,142.225,51.49328,142.57426Z" style="opacity:0.5;fill:url(#新增圖樣色票_1-27)"/><path d="M58.428,129.582c4.51513-1.08615,9.24046,2.46093,9.24046,2.46093s-2.59515,5.30809-7.11028,6.39424-9.24047-2.46093-9.24047-2.46093S53.91288,130.66817,58.428,129.582Z" style="opacity:0.5;fill:url(#新增圖樣色票_1-27)"/><path d="M64.24336,116.41728c4.51513-1.08616,9.24046,2.46093,9.24046,2.46093s-2.59515,5.30808-7.11029,6.39423-9.24046-2.46093-9.24046-2.46093S59.72822,117.50343,64.24336,116.41728Z" style="opacity:0.5;fill:url(#新增圖樣色票_1-27)"/><path d="M74.72349,104.05038c4.64388-.0224,8.43046,4.51328,8.43046,4.51328s-3.74264,4.572-8.38653,4.5944-8.43046-4.51327-8.43046-4.51327S70.0796,104.07279,74.72349,104.05038Z" style="opacity:0.5;fill:url(#新增圖樣色票_1-27)"/><path d="M81.68247,93.88055c3.48279-.0168,6.32262,3.38483,6.32262,3.38483s-2.80689,3.42888-6.28967,3.44568-6.32262-3.38483-6.32262-3.38483S78.19968,93.89735,81.68247,93.88055Z" style="opacity:0.5;fill:url(#新增圖樣色票_1-27)"/></g></g></svg>