<svg xmlns="http://www.w3.org/2000/svg" xmlns:xlink="http://www.w3.org/1999/xlink" viewBox="0 0 32.12516 20.09457"><defs><style>.cls-1,.cls-3{fill:none;}.cls-2{fill:#d7348c;}.cls-3{stroke-miterlimit:10;stroke:url(#新增圖樣色票_6);}</style><pattern id="新增圖樣色票_6" data-name="新增圖樣色票 6" width="64.60372" height="64.60372" patternTransform="translate(-33.16316 109.1644) scale(0.99278)" patternUnits="userSpaceOnUse" viewBox="0 0 64.604 64.604"><rect class="cls-1" width="64.60372" height="64.60372"/><rect class="cls-2" width="64.60372" height="64.60372"/></pattern></defs><title>plate</title><g id="圖層_2" data-name="圖層 2"><g id="圖層_3" data-name="圖層 3"><ellipse class="cls-3" cx="16.06258" cy="10.04728" rx="15.62718" ry="9.43835" transform="translate(-1.045 1.90571) rotate(-6.57635)"/><ellipse class="cls-3" cx="15.993" cy="9.44373" rx="14.62125" ry="8.8308" transform="translate(-0.97633 1.89377) rotate(-6.57635)"/><ellipse class="cls-3" cx="15.92342" cy="8.84018" rx="13.61532" ry="8.22325" transform="translate(-0.90767 1.88183) rotate(-6.57635)"/><ellipse class="cls-3" cx="15.85384" cy="8.23663" rx="12.6094" ry="7.6157" transform="translate(-0.839 1.86989) rotate(-6.57635)"/><ellipse class="cls-3" cx="15.78425" cy="7.63307" rx="11.60347" ry="7.00815" transform="translate(-0.77034 1.85795) rotate(-6.57635)"/><ellipse class="cls-3" cx="15.71467" cy="7.02952" rx="10.59754" ry="6.4006" transform="translate(-0.70167 1.84601) rotate(-6.57635)"/><ellipse class="cls-3" cx="15.64509" cy="6.42597" rx="9.59162" ry="5.79305" transform="translate(-0.633 1.83407) rotate(-6.57635)"/><ellipse class="cls-3" cx="15.57551" cy="5.82242" rx="8.58569" ry="5.1855" transform="translate(-0.56434 1.82213) rotate(-6.57635)"/><ellipse class="cls-3" cx="15.50593" cy="5.21886" rx="7.57976" ry="4.57795" transform="translate(-0.49567 1.81019) rotate(-6.57635)"/><ellipse class="cls-3" cx="15.43635" cy="4.61531" rx="6.57384" ry="3.9704" transform="translate(-0.42701 1.79825) rotate(-6.57635)"/></g></g></svg>